<mxfile host="Electron" modified="2023-06-11T09:55:06.845Z" agent="Mozilla/5.0 (Windows NT 10.0; Win64; x64) AppleWebKit/537.36 (KHTML, like Gecko) draw.io/21.2.8 Chrome/112.0.5615.165 Electron/24.2.0 Safari/537.36" etag="hJJ1ghBvnswR-N5RVB-n" version="21.2.8" type="device">
  <diagram name="Seite-1" id="ANoe1DA38lMcDxsAVN-I">
    <mxGraphModel dx="955" dy="1699" grid="1" gridSize="10" guides="1" tooltips="1" connect="1" arrows="1" fold="1" page="1" pageScale="1" pageWidth="827" pageHeight="1169" math="0" shadow="0">
      <root>
        <mxCell id="0" />
        <mxCell id="1" parent="0" />
        <mxCell id="jleiHi0Jw0vmjFWVtKDW-11" value="Notification-&lt;br&gt;service" style="rounded=1;whiteSpace=wrap;html=1;" vertex="1" parent="1">
          <mxGeometry x="222" y="360" width="120" height="60" as="geometry" />
        </mxCell>
        <mxCell id="jleiHi0Jw0vmjFWVtKDW-36" value="Customer-&lt;br&gt;service" style="rounded=1;whiteSpace=wrap;html=1;" vertex="1" parent="1">
          <mxGeometry x="80" y="140" width="120" height="60" as="geometry" />
        </mxCell>
        <mxCell id="jleiHi0Jw0vmjFWVtKDW-37" value="Billing-&lt;br&gt;service" style="rounded=1;whiteSpace=wrap;html=1;" vertex="1" parent="1">
          <mxGeometry x="360" y="140" width="120" height="60" as="geometry" />
        </mxCell>
        <mxCell id="jleiHi0Jw0vmjFWVtKDW-40" value="Policy-&lt;br&gt;service" style="rounded=1;whiteSpace=wrap;html=1;" vertex="1" parent="1">
          <mxGeometry x="222" y="140" width="120" height="60" as="geometry" />
        </mxCell>
        <mxCell id="jleiHi0Jw0vmjFWVtKDW-41" style="edgeStyle=orthogonalEdgeStyle;rounded=0;orthogonalLoop=1;jettySize=auto;html=1;" edge="1" parent="1" source="jleiHi0Jw0vmjFWVtKDW-44" target="jleiHi0Jw0vmjFWVtKDW-37">
          <mxGeometry relative="1" as="geometry" />
        </mxCell>
        <mxCell id="jleiHi0Jw0vmjFWVtKDW-42" style="edgeStyle=orthogonalEdgeStyle;rounded=0;orthogonalLoop=1;jettySize=auto;html=1;" edge="1" parent="1" source="jleiHi0Jw0vmjFWVtKDW-44" target="jleiHi0Jw0vmjFWVtKDW-40">
          <mxGeometry relative="1" as="geometry" />
        </mxCell>
        <mxCell id="jleiHi0Jw0vmjFWVtKDW-43" style="edgeStyle=orthogonalEdgeStyle;rounded=0;orthogonalLoop=1;jettySize=auto;html=1;" edge="1" parent="1" source="jleiHi0Jw0vmjFWVtKDW-44" target="jleiHi0Jw0vmjFWVtKDW-36">
          <mxGeometry relative="1" as="geometry" />
        </mxCell>
        <mxCell id="jleiHi0Jw0vmjFWVtKDW-44" value="" style="verticalLabelPosition=bottom;html=1;verticalAlign=top;align=center;strokeColor=none;fillColor=#00BEF2;shape=mxgraph.azure.website_generic;pointerEvents=1;" vertex="1" parent="1">
          <mxGeometry x="234.5" y="10" width="95" height="90" as="geometry" />
        </mxCell>
        <mxCell id="jleiHi0Jw0vmjFWVtKDW-45" value="meowmed-Webseite" style="text;html=1;align=center;verticalAlign=middle;resizable=0;points=[];autosize=1;strokeColor=none;fillColor=none;" vertex="1" parent="1">
          <mxGeometry x="217" y="-20" width="130" height="30" as="geometry" />
        </mxCell>
        <mxCell id="jleiHi0Jw0vmjFWVtKDW-47" value="" style="edgeStyle=orthogonalEdgeStyle;rounded=0;orthogonalLoop=1;jettySize=auto;html=1;dashed=1;endArrow=classicThin;endFill=1;curved=1;startArrow=classicThin;startFill=1;" edge="1" parent="1" source="jleiHi0Jw0vmjFWVtKDW-46" target="jleiHi0Jw0vmjFWVtKDW-37">
          <mxGeometry relative="1" as="geometry" />
        </mxCell>
        <mxCell id="jleiHi0Jw0vmjFWVtKDW-48" value="" style="edgeStyle=orthogonalEdgeStyle;rounded=0;orthogonalLoop=1;jettySize=auto;html=1;dashed=1;endArrow=classicThin;endFill=1;curved=1;startArrow=classicThin;startFill=1;" edge="1" parent="1" source="jleiHi0Jw0vmjFWVtKDW-46" target="jleiHi0Jw0vmjFWVtKDW-36">
          <mxGeometry relative="1" as="geometry" />
        </mxCell>
        <mxCell id="jleiHi0Jw0vmjFWVtKDW-49" value="" style="edgeStyle=orthogonalEdgeStyle;rounded=0;orthogonalLoop=1;jettySize=auto;html=1;dashed=1;endArrow=classicThin;endFill=1;startArrow=classicThin;startFill=1;" edge="1" parent="1" source="jleiHi0Jw0vmjFWVtKDW-46" target="jleiHi0Jw0vmjFWVtKDW-40">
          <mxGeometry relative="1" as="geometry" />
        </mxCell>
        <mxCell id="jleiHi0Jw0vmjFWVtKDW-50" value="" style="edgeStyle=orthogonalEdgeStyle;rounded=0;orthogonalLoop=1;jettySize=auto;html=1;dashed=1;endArrow=classicThin;endFill=1;startArrow=classicThin;startFill=1;" edge="1" parent="1" source="jleiHi0Jw0vmjFWVtKDW-46" target="jleiHi0Jw0vmjFWVtKDW-11">
          <mxGeometry relative="1" as="geometry" />
        </mxCell>
        <mxCell id="jleiHi0Jw0vmjFWVtKDW-46" value="" style="sketch=0;outlineConnect=0;fontColor=#232F3E;gradientColor=none;fillColor=#B0084D;strokeColor=none;dashed=0;verticalLabelPosition=bottom;verticalAlign=top;align=center;html=1;fontSize=12;fontStyle=0;aspect=fixed;pointerEvents=1;shape=mxgraph.aws4.mq_broker;" vertex="1" parent="1">
          <mxGeometry x="243" y="240" width="78" height="78" as="geometry" />
        </mxCell>
        <mxCell id="jleiHi0Jw0vmjFWVtKDW-66" value="" style="group" vertex="1" connectable="0" parent="1">
          <mxGeometry x="496" y="190" width="140" height="240" as="geometry" />
        </mxCell>
        <mxCell id="jleiHi0Jw0vmjFWVtKDW-63" value="" style="rounded=0;whiteSpace=wrap;html=1;fillColor=#fff2cc;strokeColor=#d6b656;" vertex="1" parent="jleiHi0Jw0vmjFWVtKDW-66">
          <mxGeometry width="140" height="240" as="geometry" />
        </mxCell>
        <mxCell id="jleiHi0Jw0vmjFWVtKDW-60" value="" style="group" vertex="1" connectable="0" parent="jleiHi0Jw0vmjFWVtKDW-66">
          <mxGeometry x="10" y="90" width="130" height="70" as="geometry" />
        </mxCell>
        <mxCell id="jleiHi0Jw0vmjFWVtKDW-59" value="" style="rounded=0;whiteSpace=wrap;html=1;fillColor=#f5f5f5;fontColor=#333333;strokeColor=#666666;" vertex="1" parent="jleiHi0Jw0vmjFWVtKDW-60">
          <mxGeometry width="120" height="50" as="geometry" />
        </mxCell>
        <mxCell id="jleiHi0Jw0vmjFWVtKDW-54" value="" style="endArrow=classicThin;html=1;rounded=0;endFill=1;dashed=1;startArrow=classicThin;startFill=1;" edge="1" parent="jleiHi0Jw0vmjFWVtKDW-60">
          <mxGeometry width="50" height="50" relative="1" as="geometry">
            <mxPoint x="20" y="9.420000000000016" as="sourcePoint" />
            <mxPoint x="100" y="8.949999999999989" as="targetPoint" />
          </mxGeometry>
        </mxCell>
        <mxCell id="jleiHi0Jw0vmjFWVtKDW-56" value="Event" style="text;html=1;strokeColor=none;fillColor=none;align=center;verticalAlign=middle;whiteSpace=wrap;rounded=0;" vertex="1" parent="jleiHi0Jw0vmjFWVtKDW-60">
          <mxGeometry x="30" y="20" width="60" height="30" as="geometry" />
        </mxCell>
        <mxCell id="jleiHi0Jw0vmjFWVtKDW-61" value="" style="group" vertex="1" connectable="0" parent="jleiHi0Jw0vmjFWVtKDW-66">
          <mxGeometry x="10" y="30" width="130" height="50" as="geometry" />
        </mxCell>
        <mxCell id="jleiHi0Jw0vmjFWVtKDW-58" value="" style="rounded=0;whiteSpace=wrap;html=1;fillColor=#f5f5f5;fontColor=#333333;strokeColor=#666666;" vertex="1" parent="jleiHi0Jw0vmjFWVtKDW-61">
          <mxGeometry width="120" height="50" as="geometry" />
        </mxCell>
        <mxCell id="jleiHi0Jw0vmjFWVtKDW-53" value="" style="endArrow=classic;html=1;rounded=0;" edge="1" parent="jleiHi0Jw0vmjFWVtKDW-61">
          <mxGeometry width="50" height="50" relative="1" as="geometry">
            <mxPoint x="20" y="8.470000000000027" as="sourcePoint" />
            <mxPoint x="100" y="8" as="targetPoint" />
          </mxGeometry>
        </mxCell>
        <mxCell id="jleiHi0Jw0vmjFWVtKDW-55" value="Request/Response" style="text;html=1;strokeColor=none;fillColor=none;align=center;verticalAlign=middle;whiteSpace=wrap;rounded=0;" vertex="1" parent="jleiHi0Jw0vmjFWVtKDW-61">
          <mxGeometry x="30" y="18" width="60" height="30" as="geometry" />
        </mxCell>
        <mxCell id="jleiHi0Jw0vmjFWVtKDW-62" value="Legende" style="text;html=1;strokeColor=none;fillColor=none;align=center;verticalAlign=middle;whiteSpace=wrap;rounded=0;" vertex="1" parent="jleiHi0Jw0vmjFWVtKDW-66">
          <mxGeometry x="40" width="60" height="30" as="geometry" />
        </mxCell>
        <mxCell id="jleiHi0Jw0vmjFWVtKDW-65" value="Messagebroker" style="sketch=0;outlineConnect=0;fontColor=#232F3E;gradientColor=none;fillColor=#B0084D;strokeColor=none;dashed=0;verticalLabelPosition=bottom;verticalAlign=top;align=center;html=1;fontSize=12;fontStyle=0;aspect=fixed;pointerEvents=1;shape=mxgraph.aws4.mq_broker;" vertex="1" parent="jleiHi0Jw0vmjFWVtKDW-66">
          <mxGeometry x="40" y="150" width="58" height="58" as="geometry" />
        </mxCell>
        <mxCell id="jleiHi0Jw0vmjFWVtKDW-67" value="Messagebroker" style="rhombus;whiteSpace=wrap;html=1;" vertex="1" parent="1">
          <mxGeometry x="234" y="740" width="100" height="80" as="geometry" />
        </mxCell>
        <mxCell id="jleiHi0Jw0vmjFWVtKDW-82" value="Notification-&lt;br&gt;service" style="rounded=1;whiteSpace=wrap;html=1;" vertex="1" parent="1">
          <mxGeometry x="224" y="860" width="120" height="60" as="geometry" />
        </mxCell>
        <mxCell id="jleiHi0Jw0vmjFWVtKDW-83" value="Customer-&lt;br&gt;service" style="rounded=1;whiteSpace=wrap;html=1;" vertex="1" parent="1">
          <mxGeometry x="82" y="640" width="120" height="60" as="geometry" />
        </mxCell>
        <mxCell id="jleiHi0Jw0vmjFWVtKDW-84" value="Billing-&lt;br&gt;service" style="rounded=1;whiteSpace=wrap;html=1;" vertex="1" parent="1">
          <mxGeometry x="362" y="640" width="120" height="60" as="geometry" />
        </mxCell>
        <mxCell id="jleiHi0Jw0vmjFWVtKDW-85" value="Policy-&lt;br&gt;service" style="rounded=1;whiteSpace=wrap;html=1;" vertex="1" parent="1">
          <mxGeometry x="224" y="640" width="120" height="60" as="geometry" />
        </mxCell>
        <mxCell id="jleiHi0Jw0vmjFWVtKDW-86" style="edgeStyle=orthogonalEdgeStyle;rounded=0;orthogonalLoop=1;jettySize=auto;html=1;" edge="1" parent="1" source="jleiHi0Jw0vmjFWVtKDW-89" target="jleiHi0Jw0vmjFWVtKDW-84">
          <mxGeometry relative="1" as="geometry" />
        </mxCell>
        <mxCell id="jleiHi0Jw0vmjFWVtKDW-87" style="edgeStyle=orthogonalEdgeStyle;rounded=0;orthogonalLoop=1;jettySize=auto;html=1;" edge="1" parent="1" source="jleiHi0Jw0vmjFWVtKDW-89" target="jleiHi0Jw0vmjFWVtKDW-85">
          <mxGeometry relative="1" as="geometry" />
        </mxCell>
        <mxCell id="jleiHi0Jw0vmjFWVtKDW-88" style="edgeStyle=orthogonalEdgeStyle;rounded=0;orthogonalLoop=1;jettySize=auto;html=1;" edge="1" parent="1" source="jleiHi0Jw0vmjFWVtKDW-89" target="jleiHi0Jw0vmjFWVtKDW-83">
          <mxGeometry relative="1" as="geometry" />
        </mxCell>
        <mxCell id="jleiHi0Jw0vmjFWVtKDW-89" value="" style="verticalLabelPosition=bottom;html=1;verticalAlign=top;align=center;strokeColor=none;fillColor=#00BEF2;shape=mxgraph.azure.website_generic;pointerEvents=1;" vertex="1" parent="1">
          <mxGeometry x="236.5" y="510" width="95" height="90" as="geometry" />
        </mxCell>
        <mxCell id="jleiHi0Jw0vmjFWVtKDW-90" value="meowmed-Webseite" style="text;html=1;align=center;verticalAlign=middle;resizable=0;points=[];autosize=1;strokeColor=none;fillColor=none;" vertex="1" parent="1">
          <mxGeometry x="219" y="480" width="130" height="30" as="geometry" />
        </mxCell>
        <mxCell id="jleiHi0Jw0vmjFWVtKDW-91" value="" style="edgeStyle=orthogonalEdgeStyle;rounded=0;orthogonalLoop=1;jettySize=auto;html=1;dashed=1;endArrow=classicThin;endFill=1;curved=1;startArrow=classicThin;startFill=1;exitX=1;exitY=0.5;exitDx=0;exitDy=0;" edge="1" parent="1" source="jleiHi0Jw0vmjFWVtKDW-67" target="jleiHi0Jw0vmjFWVtKDW-84">
          <mxGeometry relative="1" as="geometry">
            <mxPoint x="420" y="810" as="sourcePoint" />
          </mxGeometry>
        </mxCell>
        <mxCell id="jleiHi0Jw0vmjFWVtKDW-92" value="" style="edgeStyle=orthogonalEdgeStyle;rounded=0;orthogonalLoop=1;jettySize=auto;html=1;dashed=1;endArrow=classicThin;endFill=1;curved=1;startArrow=classicThin;startFill=1;exitX=0;exitY=0.5;exitDx=0;exitDy=0;" edge="1" parent="1" source="jleiHi0Jw0vmjFWVtKDW-67" target="jleiHi0Jw0vmjFWVtKDW-83">
          <mxGeometry relative="1" as="geometry">
            <mxPoint x="210" y="790" as="sourcePoint" />
          </mxGeometry>
        </mxCell>
        <mxCell id="jleiHi0Jw0vmjFWVtKDW-93" value="" style="edgeStyle=orthogonalEdgeStyle;rounded=0;orthogonalLoop=1;jettySize=auto;html=1;dashed=1;endArrow=classicThin;endFill=1;startArrow=classicThin;startFill=1;" edge="1" parent="1" source="jleiHi0Jw0vmjFWVtKDW-67" target="jleiHi0Jw0vmjFWVtKDW-85">
          <mxGeometry relative="1" as="geometry">
            <mxPoint x="284" y="744.6250454545457" as="sourcePoint" />
          </mxGeometry>
        </mxCell>
        <mxCell id="jleiHi0Jw0vmjFWVtKDW-94" value="" style="edgeStyle=orthogonalEdgeStyle;rounded=0;orthogonalLoop=1;jettySize=auto;html=1;dashed=1;endArrow=classicThin;endFill=1;startArrow=classicThin;startFill=1;exitX=0.5;exitY=1;exitDx=0;exitDy=0;" edge="1" parent="1" source="jleiHi0Jw0vmjFWVtKDW-67" target="jleiHi0Jw0vmjFWVtKDW-82">
          <mxGeometry relative="1" as="geometry">
            <mxPoint x="284" y="813.3749545454543" as="sourcePoint" />
          </mxGeometry>
        </mxCell>
        <mxCell id="jleiHi0Jw0vmjFWVtKDW-108" value="" style="group" vertex="1" connectable="0" parent="1">
          <mxGeometry x="414" y="770" width="140" height="160" as="geometry" />
        </mxCell>
        <mxCell id="jleiHi0Jw0vmjFWVtKDW-97" value="" style="rounded=0;whiteSpace=wrap;html=1;fillColor=#fff2cc;strokeColor=#d6b656;" vertex="1" parent="jleiHi0Jw0vmjFWVtKDW-108">
          <mxGeometry width="140" height="150" as="geometry" />
        </mxCell>
        <mxCell id="jleiHi0Jw0vmjFWVtKDW-98" value="" style="group" vertex="1" connectable="0" parent="jleiHi0Jw0vmjFWVtKDW-108">
          <mxGeometry x="10" y="90" width="130" height="70" as="geometry" />
        </mxCell>
        <mxCell id="jleiHi0Jw0vmjFWVtKDW-99" value="" style="rounded=0;whiteSpace=wrap;html=1;fillColor=#f5f5f5;fontColor=#333333;strokeColor=#666666;" vertex="1" parent="jleiHi0Jw0vmjFWVtKDW-98">
          <mxGeometry width="120" height="50" as="geometry" />
        </mxCell>
        <mxCell id="jleiHi0Jw0vmjFWVtKDW-100" value="" style="endArrow=classicThin;html=1;rounded=0;endFill=1;dashed=1;startArrow=classicThin;startFill=1;" edge="1" parent="jleiHi0Jw0vmjFWVtKDW-98">
          <mxGeometry width="50" height="50" relative="1" as="geometry">
            <mxPoint x="20" y="9.420000000000016" as="sourcePoint" />
            <mxPoint x="100" y="8.949999999999989" as="targetPoint" />
          </mxGeometry>
        </mxCell>
        <mxCell id="jleiHi0Jw0vmjFWVtKDW-101" value="Event" style="text;html=1;strokeColor=none;fillColor=none;align=center;verticalAlign=middle;whiteSpace=wrap;rounded=0;" vertex="1" parent="jleiHi0Jw0vmjFWVtKDW-98">
          <mxGeometry x="30" y="20" width="60" height="30" as="geometry" />
        </mxCell>
        <mxCell id="jleiHi0Jw0vmjFWVtKDW-102" value="" style="group" vertex="1" connectable="0" parent="jleiHi0Jw0vmjFWVtKDW-108">
          <mxGeometry x="10" y="30" width="130" height="50" as="geometry" />
        </mxCell>
        <mxCell id="jleiHi0Jw0vmjFWVtKDW-103" value="" style="rounded=0;whiteSpace=wrap;html=1;fillColor=#f5f5f5;fontColor=#333333;strokeColor=#666666;" vertex="1" parent="jleiHi0Jw0vmjFWVtKDW-102">
          <mxGeometry width="120" height="50" as="geometry" />
        </mxCell>
        <mxCell id="jleiHi0Jw0vmjFWVtKDW-104" value="" style="endArrow=classic;html=1;rounded=0;" edge="1" parent="jleiHi0Jw0vmjFWVtKDW-102">
          <mxGeometry width="50" height="50" relative="1" as="geometry">
            <mxPoint x="20" y="8.470000000000027" as="sourcePoint" />
            <mxPoint x="100" y="8" as="targetPoint" />
          </mxGeometry>
        </mxCell>
        <mxCell id="jleiHi0Jw0vmjFWVtKDW-105" value="Request/Response" style="text;html=1;strokeColor=none;fillColor=none;align=center;verticalAlign=middle;whiteSpace=wrap;rounded=0;" vertex="1" parent="jleiHi0Jw0vmjFWVtKDW-102">
          <mxGeometry x="30" y="18" width="60" height="30" as="geometry" />
        </mxCell>
        <mxCell id="jleiHi0Jw0vmjFWVtKDW-106" value="Legende" style="text;html=1;strokeColor=none;fillColor=none;align=center;verticalAlign=middle;whiteSpace=wrap;rounded=0;" vertex="1" parent="jleiHi0Jw0vmjFWVtKDW-108">
          <mxGeometry x="40" width="60" height="30" as="geometry" />
        </mxCell>
      </root>
    </mxGraphModel>
  </diagram>
</mxfile>
